<?xml version="1.0" encoding="utf-8"?>
<!-- Generator: Adobe Illustrator 19.0.0, SVG Export Plug-In . SVG Version: 6.00 Build 0)  -->
<svg version="1.1" id="Layer_1" xmlns="http://www.w3.org/2000/svg" xmlns:xlink="http://www.w3.org/1999/xlink" x="0px" y="0px"
	 viewBox="-41 164.9 136 24" style="enable-background:new -41 164.9 136 24;" xml:space="preserve">
<path d="M95,188.9H-41v-2H95V188.9L95,188.9z M95,170.9v0.6c0,4.4-5.5,8-13.8,9.3v3.1H69.9v-3.1c-8.3-1.2-13.8-4.9-13.8-9.3v-0.6
	l0.6,0.1c0.1,0,3.8,0.2,9.3,0.3l-6.3-5l1.3-1.5l6.9,6.5c0.8,0,1.6,0,2.4,0l3.6-4c0.9-1.6,2.4-1.6,3.3,0l3.6,4c0.8,0,1.5,0,2.2,0
	l6.9-6.5l1.3,1.5l-6.3,5c5.6-0.1,9.4-0.3,9.5-0.3L95,170.9z M91.5,172.8c-2.2,0.4-7.3,0.8-16,0.8s-13.8-0.4-16-0.8
	c0.6,3.6,3.5,6,11,7l1.6,0.1v3.2h6.9v-3.3l1.6-0.1C88,178.8,91,176.4,91.5,172.8z M12.2,171v-6.1H9.3v19l0.9,0.1
	c1.8,0.2,3.1,0.2,4,0.2c2.4,0,4.1-0.5,5.1-1.5c1-1,1.5-2.8,1.5-5.5s-0.4-4.4-1.2-5.5c-0.8-1-2.1-1.5-4-1.5
	C14.5,170.2,13.4,170.4,12.2,171z M12.2,181.5v-8.1l0.4-0.1c0.9-0.3,1.7-0.4,2.6-0.4c0.9,0,1.6,0.3,2,1s0.6,1.8,0.6,3.4
	c0,1.6-0.2,2.7-0.7,3.4c-0.5,0.7-1.4,1-2.9,1C13.8,181.6,13.1,181.5,12.2,181.5z M32.5,171.2c-0.7-0.7-1.9-1.1-3.5-1.1
	c-1.6,0-3.4,0.2-5.4,0.7l0.1,2.1l0.9,0c1.7-0.1,3.2-0.2,4.3-0.2c0.6,0,1.1,0.1,1.4,0.4c0.3,0.3,0.5,0.8,0.5,1.5v1l-3.5,0.3
	c-1.5,0.1-2.6,0.5-3.3,1.1c-0.7,0.6-1.1,1.6-1.1,3c0,2.9,1.4,4.3,4,4.3c1.5,0,2.9-0.3,4.3-1c0.8,0.7,2,1,3.6,1l0.1-2.2
	c-0.4,0-0.7-0.2-0.9-0.4s-0.3-0.5-0.3-0.9v-6.1C33.6,173.1,33.2,171.9,32.5,171.2z M30.7,177.6v3.6l-0.5,0.1c-1,0.3-2,0.4-2.9,0.4
	c-1.1,0-1.6-0.6-1.6-1.8c0-1.2,0.6-1.9,1.8-2L30.7,177.6z M40.2,183.9v-9.4l0.6-0.2c1.1-0.5,2.4-0.9,3.9-1.2v-2.9
	c-1.5,0.3-3,0.9-4.6,1.9v-1.6h-2.9v13.4L40.2,183.9L40.2,183.9z M-28.3,182.7c-0.2-0.2-0.3-0.5-0.3-0.9v-7.2c0-1.5-0.4-2.7-1.1-3.4
	c-0.7-0.7-1.9-1.1-3.6-1.1c-1.4,0-2.9,0.2-4.5,0.5c-0.7-0.4-1.8-0.5-3.1-0.5l-0.1,1.1c0.4,0,0.7,0.2,0.9,0.4s0.3,0.5,0.3,0.9v7.2
	v4.1h2.9v-4.1v-1v-2.1v-3.6c0-0.1,0-0.2,0-0.3c1.4-0.1,2.6-0.1,3.6-0.1c0.6,0,1.1,0.1,1.4,0.4c0.3,0.3,0.5,0.8,0.5,1.5v1v2.1v3.6
	c0,1.1,0.1,1.6,0.5,2.2c0.6,0.7,1.9,0.8,3.4,0.8l0.1-1.1C-27.8,183-28.1,182.9-28.3,182.7z M-2.2,170.1c0,0-2-0.1-4.9-0.1
	c-1.5,0-2.8,0.5-3.8,1.2s-1.4,1.7-1.4,3.1c0,1.4,0.3,2.3,1,2.9c0.7,0.5,1.7,0.9,3.2,1.1c4.1,0.6,3.7,3.3,2.7,4c-1,0.8-1.9,0.8-4,0.5
	l-0.1,1.1c0,0,1.2,0.2,2.3,0.2c1.7,0,2.9-0.4,3.9-1.1c0.9-0.7,1.5-1.6,1.5-3c0-1.4-0.3-2.4-0.9-3s-1.7-1-3.2-1.2
	c-2.9-0.5-3.4-1-3.4-2.7c0-1.6,1.7-2,2.7-2c0.9,0,1.9,0,4.4,0.1L-2.2,170.1z M4.5,182.7c-0.2-0.2-0.3-0.5-0.3-0.9v-1v-6.3
	c0-0.6,0-1.1,0-1.5c0-2.4-1.7-3-4-3l-0.1,1.1c0.4,0,0.7,0.2,0.9,0.4s0.3,0.5,0.3,0.9v1c0,0,0,4.2,0,6.3c0,0.6,0,1.1,0,1.5
	c0,2.4,1.7,3,4,3l0.1-1.1C5,183,4.7,182.9,4.5,182.7z M-15.2,177.3v4.5c0,0.4,0.1,0.7,0.3,0.9s0.5,0.3,0.9,0.4l-0.1,1.1
	c-1.5,0-2.7-0.3-3.6-1c-1.4,0.7-2.9,1-4.3,1c-2.7,0-4-1.4-4-4.3c0-1.4,0.4-2.4,1.1-3c0.7-0.6,1.8-1,3.3-1.1l3.4-0.3v-1
	c0-0.7-0.2-2.3-0.5-2.6c-0.8-0.8-2.1-0.9-3.9-0.8l-0.9,0l-0.1-1.1c1.3-0.1,1.6-0.1,3.3-0.1c1.6,0,3.1,0.5,3.8,1.2
	c0.7,0.7,1.1,1.8,1.1,3.4v0.6l0.3,0c0.3,0,0.5-0.2,0.6-0.3c0.1-0.1,0.2-0.4,0.2-0.7l0.8,0c0.1,1.1,0,2-0.5,2.7
	C-14.1,177.2-15.2,177.3-15.2,177.3L-15.2,177.3z M-18.2,177.6l-3.1,0.3c-1.2,0.1-1.8,0.8-1.8,2s0.6,1.8,1.6,1.8
	c0.9,0,1.8-0.1,2.9-0.4l0.5-0.2L-18.2,177.6L-18.2,177.6z"/>
</svg>
