<?xml version="1.0" standalone="no"?>
<!DOCTYPE svg PUBLIC "-//W3C//DTD SVG 20010904//EN"
 "http://www.w3.org/TR/2001/REC-SVG-20010904/DTD/svg10.dtd">
<svg version="1.0" xmlns="http://www.w3.org/2000/svg"
 width="512.000000pt" height="512.000000pt" viewBox="0 0 512.000000 512.000000"
 preserveAspectRatio="xMidYMid meet">
<metadata>
Created by potrace 1.11, written by Peter Selinger 2001-2013
</metadata>
<g transform="translate(0.000000,512.000000) scale(0.100000,-0.100000)"
fill="#000000" stroke="none">
<path d="M650 3804 c-1 -5 -36 -47 -80 -94 -44 -47 -80 -90 -80 -95 0 -6 8
-15 18 -21 14 -10 609 -482 726 -577 21 -17 46 -37 55 -44 13 -10 -20 -12
-174 -8 -565 14 -1015 33 -1067 44 -43 10 -45 7 -43 -69 3 -88 13 -151 36
-220 127 -388 595 -715 1294 -905 96 -26 374 -85 403 -85 9 0 33 -5 52 -10
l35 -10 0 -197 0 -198 740 0 740 0 1 195 c1 107 2 198 3 203 0 4 11 7 24 7 59
0 362 67 552 121 191 55 267 84 448 168 430 200 709 481 776 781 6 25 11 86
11 136 l0 92 -37 -8 c-58 -13 -513 -32 -1078 -45 l-200 -5 26 23 c15 12 35 29
45 37 11 8 118 94 239 190 121 96 227 180 235 187 60 48 257 207 264 213 5 5
-8 27 -31 52 -23 24 -61 65 -85 92 -34 37 -48 47 -60 40 -13 -8 -105 -94 -378
-354 -45 -43 -349 -331 -364 -345 -6 -6 -42 -40 -81 -76 l-70 -65 -143 -2
-143 -3 -42 48 c-23 26 -65 72 -92 103 -28 30 -66 73 -85 94 -19 22 -56 62
-81 90 -25 28 -61 69 -80 91 -19 22 -39 45 -46 50 -7 6 -36 41 -66 80 -70 92
-130 129 -203 128 -70 -1 -130 -36 -185 -106 -22 -29 -46 -59 -52 -67 -15 -18
-186 -211 -201 -226 -14 -14 -134 -149 -201 -226 l-50 -57 -155 1 -155 2 -40
35 c-22 19 -116 107 -209 195 -230 219 -224 213 -391 371 -82 77 -165 156
-185 175 -69 66 -90 83 -90 74z m-240 -973 c36 -6 83 -13 105 -16 22 -4 50 -8
61 -10 12 -2 48 -7 80 -11 33 -4 61 -9 64 -9 3 -1 37 -5 75 -9 39 -5 77 -10
85 -11 39 -7 100 -15 155 -20 33 -4 74 -8 90 -10 87 -11 419 -39 585 -50 426
-27 1418 -27 1700 0 19 1 82 6 140 10 58 3 119 8 135 10 17 2 66 7 110 10 44
3 94 8 110 10 17 2 62 7 100 10 39 3 99 10 135 15 36 5 92 12 125 15 33 3 67
8 75 10 8 2 42 7 75 11 33 3 69 8 80 10 11 2 40 7 65 10 25 3 52 7 60 9 8 3
33 7 55 10 22 3 65 9 95 14 30 5 57 7 59 5 9 -9 -35 -143 -69 -209 -179 -348
-623 -612 -1245 -740 -105 -22 -115 -24 -150 -30 -16 -3 -43 -7 -60 -10 -27
-5 -168 -15 -250 -19 l-30 -1 -3 -192 -2 -193 -455 0 -455 0 0 190 c0 144 -3
192 -12 195 -7 2 -71 6 -141 9 -71 3 -132 8 -136 10 -4 3 -30 8 -57 11 -27 4
-57 9 -66 11 -10 3 -30 7 -45 10 -16 3 -75 16 -133 30 -642 153 -1068 447
-1194 826 -33 97 -33 112 -3 105 12 -3 51 -11 87 -16z"/>
</g>
</svg>
